# xmcd
#
# Track frame offsets:
#	150
#	18987
#	36797
#	60975
#	76950
#	99057
#	114570
#	131295
#	155032
#	174737
#
# Disc length: 2550 seconds
#
# Revision: 7
# Processed by: cddbd v1.5.2PL0 Copyright (c) Steve Scherf et al.
# Submitted via: EZCDAudioConverter 6.0.7.1
#
DISCID=6f09f40a
DTITLE=Asleep At The Wheel - Greatest Hits
DYEAR=1992
DGENRE=Country
TTITLE0=(Get Your Kicks On) Route 66
TTITLE1=Miles And Miles Of Texas
TTITLE2=Take Me Back To Tulsa-Stay All Night
TTITLE3=Black And White Rag
TTITLE4=Jambalaya
TTITLE5=Ain't Nobody Here But Us Chickens
TTITLE6=Dance With Who Brung You
TTITLE7=Choo Choo Ch'Boogie
TTITLE8=House Of Blue Lights
TTITLE9=Beat Me Daddy (Eight To The Bar)
EXTD=
EXTT0=
EXTT1=
EXTT2=
EXTT3=
EXTT4=
EXTT5=
EXTT6=
EXTT7=
EXTT8=
EXTT9=
PLAYORDER=
